<svg width="345" height="241" viewBox="0 0 345 241" fill="none" xmlns="http://www.w3.org/2000/svg">
<g clip-path="url(#clip0_0_3917)">
<path d="M196.444 117.842C204.207 117.842 210.501 112.181 210.501 105.198C210.501 98.2154 204.207 92.5547 196.444 92.5547C188.681 92.5547 182.388 98.2154 182.388 105.198C182.388 112.181 188.681 117.842 196.444 117.842Z" fill="#ECF2F2"/>
<path d="M230.895 121.446L216.205 108.233C217.331 106.658 218.094 104.895 218.449 103.05C218.804 101.205 218.743 99.3138 218.271 97.4899C217.799 95.6659 216.924 93.9458 215.699 92.4314C214.474 90.9171 212.924 89.6393 211.139 88.6738C207.78 86.8687 203.79 86.2642 199.958 86.98C196.127 87.6959 192.734 89.6799 190.452 92.5391C188.352 95.1876 187.343 98.4114 187.6 101.656C187.856 104.901 189.361 107.964 191.856 110.319C194.351 112.674 197.68 114.174 201.271 114.56C204.862 114.947 208.491 114.196 211.533 112.436L226.222 125.649C226.842 126.206 227.682 126.519 228.558 126.518C229.434 126.518 230.274 126.205 230.893 125.648C231.513 125.091 231.861 124.335 231.861 123.547C231.861 122.759 231.514 122.003 230.895 121.446ZM210.984 107.74C209.164 109.377 206.769 110.396 204.207 110.623C201.646 110.85 199.076 110.271 196.936 108.985C194.795 107.698 193.217 105.784 192.47 103.569C191.723 101.353 191.853 98.9731 192.838 96.834C193.823 94.6949 195.602 92.9293 197.872 91.8378C200.142 90.7464 202.763 90.3967 205.287 90.8484C207.812 91.3001 210.084 92.5252 211.717 94.3149C213.35 96.1047 214.243 98.3484 214.243 100.664C214.245 101.978 213.958 103.28 213.398 104.494C212.839 105.709 212.019 106.812 210.984 107.74Z" fill="#37454D"/>
<path d="M337.375 140.935C374.941 178.303 266.044 232.156 178.052 232.156C90.0599 232.156 29.1833 190.43 18.7284 140.935C-6.62114 20.928 234.712 -55.3479 178.052 49.7144C95.4622 202.855 307.791 111.507 337.375 140.935Z" fill="#ECF2F2"/>
<path d="M320.52 149.779C358.086 187.147 249.188 241 161.196 241C73.2044 241 12.3278 199.273 1.87292 149.779C-23.4766 29.7718 217.857 -46.5042 161.196 58.5582C78.6068 211.699 290.936 120.351 320.52 149.779Z" fill="#528786"/>
<path d="M52.5303 62.1676C26.1704 61.1236 5.73216 56.0091 6.00066 50.5239C6.16164 47.2353 13.6217 44.5908 26.468 43.2689C26.514 43.2639 26.5606 43.2671 26.6052 43.2784C26.6498 43.2896 26.6915 43.3087 26.7278 43.3345C26.7642 43.3603 26.7945 43.3924 26.817 43.4287C26.8396 43.4651 26.8539 43.5052 26.8591 43.5466C26.8644 43.5879 26.8605 43.6299 26.8477 43.6699C26.8349 43.7099 26.8134 43.7473 26.7844 43.7798C26.7555 43.8123 26.7197 43.8394 26.6791 43.8594C26.6385 43.8794 26.5939 43.892 26.5478 43.8965C14.4466 45.1419 6.84227 47.692 6.70227 50.5517C6.45946 55.512 27.4602 60.5424 52.5612 61.5365C77.6622 62.5306 99.0732 59.1799 99.316 54.2196C99.4566 51.3479 92.0835 48.1977 80.0738 45.9985C80.0285 45.9903 79.9854 45.9742 79.9471 45.951C79.9087 45.9278 79.8758 45.8981 79.8503 45.8634C79.8247 45.8288 79.807 45.79 79.7982 45.7492C79.7894 45.7084 79.7896 45.6664 79.7988 45.6257C79.808 45.585 79.826 45.5463 79.8519 45.5119C79.8778 45.4775 79.911 45.4479 79.9495 45.4251C79.9881 45.4022 80.0313 45.3864 80.0767 45.3785C80.1221 45.3707 80.1687 45.371 80.214 45.3794C92.9611 47.7137 100.179 50.946 100.018 54.2474C99.7491 59.7326 78.8902 63.2116 52.5303 62.1676Z" fill="#FF6F6B"/>
<path d="M29.1182 63.0864C31.3233 66.8544 34.5899 70.0355 38.5911 72.3113C42.5923 74.5871 47.1878 75.8778 51.9177 76.0544C56.6477 76.231 61.3463 75.2872 65.5434 73.3175C69.7405 71.3478 73.2889 68.4212 75.8336 64.8305C60.238 65.0196 44.6427 64.4373 29.1182 63.0864Z" fill="#FF6F6B"/>
<path d="M78.7495 58.1863C80.0766 54.6057 80.459 50.7965 79.8664 47.06C79.2739 43.3235 77.7226 39.7624 75.3353 36.6584C72.948 33.5545 69.7904 30.9929 66.1122 29.1765C62.434 27.36 58.3362 26.3386 54.1433 26.1929C49.9503 26.0473 45.7772 26.7815 41.9542 28.3373C38.1313 29.8932 34.7634 32.2281 32.1171 35.1572C29.4708 38.0864 27.6188 41.5293 26.7077 45.2135C25.7965 48.8978 25.8511 52.7222 26.8673 56.3842C44.002 59.0005 61.4416 59.6063 78.7495 58.1863Z" fill="#FF6F6B"/>
<path d="M59.2853 41.8821C61.0308 41.8821 62.4457 40.6094 62.4457 39.0395C62.4457 37.4695 61.0308 36.1968 59.2853 36.1968C57.5399 36.1968 56.125 37.4695 56.125 39.0395C56.125 40.6094 57.5399 41.8821 59.2853 41.8821Z" fill="white"/>
<path d="M43.0202 52.9341C45.9292 52.9341 48.2874 50.8129 48.2874 48.1963C48.2874 45.5797 45.9292 43.4585 43.0202 43.4585C40.1112 43.4585 37.7529 45.5797 37.7529 48.1963C37.7529 50.8129 40.1112 52.9341 43.0202 52.9341Z" fill="white"/>
<path d="M122.518 48.293C124.458 48.293 126.03 46.8789 126.03 45.1345C126.03 43.3902 124.458 41.9761 122.518 41.9761C120.579 41.9761 119.007 43.3902 119.007 45.1345C119.007 46.8789 120.579 48.293 122.518 48.293Z" fill="#FF6F6B"/>
<path d="M43.1577 144.944C44.3213 144.944 45.2646 144.096 45.2646 143.049C45.2646 142.002 44.3213 141.154 43.1577 141.154C41.9941 141.154 41.0508 142.002 41.0508 143.049C41.0508 144.096 41.9941 144.944 43.1577 144.944Z" fill="#ECF2F2"/>
<path d="M190.641 210.01C191.805 210.01 192.748 209.162 192.748 208.115C192.748 207.068 191.805 206.22 190.641 206.22C189.477 206.22 188.534 207.068 188.534 208.115C188.534 209.162 189.477 210.01 190.641 210.01Z" fill="#ECF2F2"/>
<path d="M53.3416 108.305C53.9234 108.305 54.395 107.881 54.395 107.358C54.395 106.834 53.9234 106.41 53.3416 106.41C52.7597 106.41 52.2881 106.834 52.2881 107.358C52.2881 107.881 52.7597 108.305 53.3416 108.305Z" fill="#ECF2F2"/>
<path d="M140.427 179.056C141.008 179.056 141.48 178.632 141.48 178.109C141.48 177.585 141.008 177.161 140.427 177.161C139.845 177.161 139.373 177.585 139.373 178.109C139.373 178.632 139.845 179.056 140.427 179.056Z" fill="#ECF2F2"/>
<path d="M298.795 169.897C299.376 169.897 299.848 169.472 299.848 168.949C299.848 168.426 299.376 168.001 298.795 168.001C298.213 168.001 297.741 168.426 297.741 168.949C297.741 169.472 298.213 169.897 298.795 169.897Z" fill="#ECF2F2"/>
<path d="M249.283 198.007C249.865 198.007 250.336 197.583 250.336 197.06C250.336 196.537 249.865 196.112 249.283 196.112C248.701 196.112 248.229 196.537 248.229 197.06C248.229 197.583 248.701 198.007 249.283 198.007Z" fill="#ECF2F2"/>
<path d="M197.664 163.895C198.246 163.895 198.717 163.471 198.717 162.948C198.717 162.424 198.246 162 197.664 162C197.082 162 196.61 162.424 196.61 162.948C196.61 163.471 197.082 163.895 197.664 163.895Z" fill="#ECF2F2"/>
<path d="M130.945 70.403C131.527 70.403 131.999 69.9787 131.999 69.4554C131.999 68.9321 131.527 68.5078 130.945 68.5078C130.363 68.5078 129.892 68.9321 129.892 69.4554C129.892 69.9787 130.363 70.403 130.945 70.403Z" fill="#ECF2F2"/>
<path d="M139.373 23.6569C139.955 23.6569 140.426 23.2326 140.426 22.7093C140.426 22.186 139.955 21.7617 139.373 21.7617C138.791 21.7617 138.319 22.186 138.319 22.7093C138.319 23.2326 138.791 23.6569 139.373 23.6569Z" fill="#ECF2F2"/>
<path d="M134.457 220.433C135.039 220.433 135.51 220.009 135.51 219.485C135.51 218.962 135.039 218.538 134.457 218.538C133.875 218.538 133.403 218.962 133.403 219.485C133.403 220.009 133.875 220.433 134.457 220.433Z" fill="#ECF2F2"/>
<path d="M82.4871 200.534C83.0689 200.534 83.5405 200.11 83.5405 199.587C83.5405 199.063 83.0689 198.639 82.4871 198.639C81.9052 198.639 81.4336 199.063 81.4336 199.587C81.4336 200.11 81.9052 200.534 82.4871 200.534Z" fill="#ECF2F2"/>
<path d="M247.176 166.422C247.757 166.422 248.229 165.998 248.229 165.474C248.229 164.951 247.757 164.527 247.176 164.527C246.594 164.527 246.122 164.951 246.122 165.474C246.122 165.998 246.594 166.422 247.176 166.422Z" fill="#ECF2F2"/>
<path d="M52.1018 73.846C53.8472 73.846 55.2621 72.5733 55.2621 71.0033C55.2621 69.4334 53.8472 68.1606 52.1018 68.1606C50.3563 68.1606 48.9414 69.4334 48.9414 71.0033C48.9414 72.5733 50.3563 73.846 52.1018 73.846Z" fill="white"/>
<path d="M123.571 114.622C123.571 123.112 108.978 142.896 104.713 148.496C104.584 148.666 104.411 148.804 104.21 148.9C104.008 148.996 103.784 149.046 103.556 149.046C103.328 149.046 103.103 148.996 102.901 148.9C102.7 148.804 102.527 148.666 102.398 148.496C98.1336 142.896 83.54 123.112 83.54 114.622C83.54 112.258 84.0578 109.917 85.0636 107.733C86.0695 105.548 87.5438 103.564 89.4025 101.892C91.2611 100.22 93.4676 98.8939 95.896 97.9891C98.3243 97.0843 100.927 96.6187 103.556 96.6187C106.184 96.6187 108.787 97.0843 111.215 97.9891C113.644 98.8939 115.85 100.22 117.709 101.892C119.567 103.564 121.042 105.548 122.047 107.733C123.053 109.917 123.571 112.258 123.571 114.622Z" fill="white"/>
<path d="M103.555 122.519C109.18 122.519 113.739 118.418 113.739 113.359C113.739 108.3 109.18 104.199 103.555 104.199C97.9313 104.199 93.3721 108.3 93.3721 113.359C93.3721 118.418 97.9313 122.519 103.555 122.519Z" fill="#FF6F6B"/>
<path d="M103.38 158.842C109.877 158.842 115.143 157.923 115.143 156.789C115.143 155.655 109.877 154.736 103.38 154.736C96.8829 154.736 91.6162 155.655 91.6162 156.789C91.6162 157.923 96.8829 158.842 103.38 158.842Z" fill="white"/>
<path d="M286.838 100.416C286.749 100.571 286.674 100.733 286.613 100.899L269.834 105.092L266.81 102.431L261.748 106.01L266.592 111.19C266.983 111.608 267.515 111.901 268.107 112.025C268.699 112.148 269.32 112.096 269.876 111.875L288.001 104.678C288.616 105.062 289.346 105.269 290.095 105.27C290.843 105.272 291.575 105.068 292.191 104.687C292.808 104.305 293.281 103.764 293.548 103.135C293.814 102.505 293.861 101.818 293.683 101.164C293.504 100.51 293.109 99.9209 292.549 99.4742C291.989 99.0274 291.291 98.7446 290.548 98.6634C289.805 98.5821 289.052 98.7063 288.389 99.0194C287.726 99.3324 287.185 99.8196 286.838 100.416H286.838Z" fill="#FFB8B8"/>
<path d="M269.242 105.338L262.944 109.747C262.765 109.873 262.558 109.962 262.337 110.009C262.116 110.056 261.886 110.059 261.664 110.019C261.441 109.979 261.231 109.896 261.047 109.777C260.863 109.657 260.71 109.503 260.598 109.325L256.684 103.094C255.975 102.266 255.661 101.218 255.809 100.182C255.958 99.1453 256.558 98.204 257.477 97.5645C258.396 96.925 259.559 96.6394 260.712 96.7704C261.865 96.9014 262.913 97.4382 263.626 98.2632L269.363 103.189C269.527 103.33 269.656 103.501 269.74 103.691C269.824 103.88 269.861 104.084 269.85 104.288C269.838 104.492 269.778 104.691 269.673 104.873C269.569 105.054 269.422 105.213 269.242 105.338V105.338Z" fill="#FF6F6B"/>
<path d="M288.446 98.3302L294.833 100.915C295.101 101.023 295.309 101.222 295.413 101.469C295.517 101.716 295.508 101.989 295.388 102.23L294.632 103.742C294.721 103.778 294.79 103.845 294.825 103.927C294.859 104.009 294.856 104.1 294.817 104.18L294.514 104.785C294.474 104.865 294.4 104.927 294.309 104.958C294.217 104.99 294.116 104.987 294.027 104.951L293.724 105.556C293.813 105.592 293.883 105.659 293.917 105.741C293.952 105.823 293.949 105.914 293.909 105.994L293.607 106.599C293.566 106.679 293.493 106.741 293.401 106.773C293.31 106.804 293.209 106.801 293.119 106.765L289.036 114.929C288.916 115.169 288.694 115.357 288.42 115.451C288.146 115.544 287.841 115.536 287.574 115.428L281.187 112.843C280.92 112.735 280.711 112.536 280.607 112.289C280.503 112.042 280.512 111.769 280.633 111.528L286.984 98.8292C287.105 98.5887 287.326 98.4009 287.6 98.3074C287.875 98.2138 288.179 98.222 288.446 98.3302Z" fill="#37454D"/>
<path d="M282.347 112.039L287.471 114.115C287.727 114.218 288.019 114.226 288.282 114.136C288.545 114.047 288.758 113.867 288.875 113.637L291.241 108.903L292.063 107.261L294.205 102.978C294.319 102.747 294.328 102.486 294.228 102.25C294.129 102.013 293.93 101.822 293.674 101.718L292.063 101.065L288.547 99.6425C288.29 99.5394 287.999 99.5321 287.736 99.6223C287.473 99.7124 287.261 99.8926 287.146 100.123L285.075 104.264L282.716 108.979L281.816 110.779C281.702 111.01 281.693 111.272 281.792 111.508C281.892 111.744 282.091 111.935 282.347 112.039Z" fill="#F2F2F2"/>
<path d="M271.641 170.701L275.946 170.7L277.995 155.764L271.641 155.764L271.641 170.701Z" fill="#FFB8B8"/>
<path d="M270.543 169.436L279.021 169.436H279.021C279.731 169.436 280.434 169.561 281.089 169.805C281.745 170.05 282.34 170.408 282.842 170.859C283.344 171.31 283.742 171.846 284.013 172.436C284.285 173.025 284.424 173.657 284.424 174.295V174.453L270.543 174.454L270.543 169.436Z" fill="#37454D"/>
<path d="M282.878 169.753L287.183 169.752L289.231 154.816L282.877 154.817L282.878 169.753Z" fill="#FFB8B8"/>
<path d="M281.78 168.489L290.258 168.488H290.259C290.968 168.488 291.671 168.614 292.326 168.858C292.982 169.102 293.577 169.46 294.079 169.912C294.581 170.363 294.979 170.899 295.25 171.488C295.522 172.078 295.662 172.71 295.662 173.348V173.506L281.781 173.506L281.78 168.489Z" fill="#37454D"/>
<path d="M252.331 135.652C253.248 138.097 254.988 140.226 257.31 141.743C259.631 143.26 262.419 144.091 265.289 144.12L265.506 144.123C267.729 144.18 270.338 143.536 272.898 142.61C277.954 140.781 282.811 137.853 284.1 137.048L281.915 155.933L281.031 163.589C281.008 163.787 281.032 163.987 281.101 164.176C281.17 164.366 281.282 164.54 281.43 164.688C281.578 164.835 281.759 164.954 281.962 165.035C282.164 165.116 282.382 165.158 282.604 165.159H288.057C288.407 165.159 288.747 165.055 289.024 164.863C289.301 164.671 289.499 164.402 289.588 164.097L298.592 133.255C298.862 132.331 298.883 131.364 298.655 130.431C298.427 129.499 297.955 128.629 297.278 127.894C296.602 127.158 295.74 126.578 294.765 126.201C293.79 125.825 292.729 125.662 291.67 125.728L272.968 126.881L274.274 122.181L257.581 121.183L257.532 121.214C257.131 121.476 256.742 121.751 256.369 122.039C255.439 122.747 254.614 123.56 253.915 124.458C252.665 126.07 251.867 127.93 251.592 129.88C251.316 131.829 251.57 133.81 252.331 135.652Z" fill="#37454D"/>
<path d="M252.331 135.652C253.248 138.097 254.988 140.226 257.31 141.743C259.631 143.26 262.419 144.091 265.289 144.12C268.032 142.871 270.68 141.458 273.214 139.891L272.898 142.61L270.145 166.432C270.123 166.63 270.147 166.83 270.215 167.019C270.284 167.208 270.396 167.382 270.545 167.53C270.693 167.678 270.874 167.796 271.076 167.878C271.278 167.959 271.497 168.001 271.718 168.001H277.171C277.521 168.002 277.861 167.898 278.138 167.706C278.415 167.514 278.613 167.244 278.702 166.94L281.915 155.933L287.706 136.097C287.976 135.174 287.998 134.206 287.769 133.274C287.541 132.342 287.069 131.472 286.393 130.736C285.716 130.001 284.855 129.421 283.88 129.044C282.904 128.667 281.844 128.505 280.785 128.57L262.083 129.723L263.389 125.023L253.915 124.458C252.664 126.07 251.867 127.93 251.592 129.88C251.316 131.829 251.569 133.81 252.331 135.652Z" fill="#37454D"/>
<path d="M256.345 123.128L256.219 123.114L253.307 110.232C253.282 110.12 250.9 99.009 258.201 93.2001L258.328 92.4051C258.36 92.2016 258.441 92.0069 258.566 91.8344C258.69 91.6619 258.854 91.5157 259.047 91.4059C259.241 91.2961 259.458 91.2253 259.685 91.1983C259.911 91.1714 260.141 91.1889 260.36 91.2498L267.237 93.1685C267.626 93.2764 267.954 93.5156 268.152 93.836C268.349 94.1564 268.401 94.5331 268.297 94.8873L267.628 97.1746C268.555 98.1538 279.467 109.971 275.666 119.074L273.964 125.06L256.345 123.128Z" fill="#FF6F6B"/>
<path d="M284.901 113.074C284.736 113.167 284.58 113.272 284.434 113.387L267.615 109.326L266.515 105.651L260.133 106.419L261.377 113.095C261.477 113.634 261.769 114.129 262.209 114.506C262.65 114.884 263.214 115.122 263.818 115.186L283.493 117.277C283.806 117.889 284.318 118.4 284.962 118.744C285.605 119.087 286.35 119.247 287.097 119.2C287.844 119.154 288.557 118.904 289.142 118.484C289.727 118.064 290.156 117.493 290.372 116.849C290.588 116.204 290.58 115.516 290.351 114.875C290.121 114.234 289.68 113.671 289.086 113.262C288.492 112.852 287.773 112.614 287.026 112.581C286.278 112.548 285.537 112.72 284.901 113.074H284.901Z" fill="#FFB8B8"/>
<path d="M266.967 109.267L259.052 110.184C258.826 110.21 258.598 110.192 258.381 110.132C258.164 110.071 257.964 109.969 257.795 109.833C257.626 109.697 257.491 109.529 257.401 109.342C257.31 109.155 257.266 108.952 257.27 108.748L257.421 101.592C257.279 100.555 257.6 99.5094 258.314 98.6849C259.028 97.8603 260.076 97.324 261.228 97.1935C262.381 97.063 263.544 97.3491 264.463 97.9889C265.382 98.6287 265.981 99.57 266.129 100.607L268.286 107.471C268.347 107.668 268.361 107.874 268.326 108.076C268.292 108.278 268.209 108.47 268.084 108.641C267.958 108.811 267.794 108.955 267.601 109.064C267.408 109.172 267.192 109.241 266.967 109.267Z" fill="#FF6F6B"/>
<path d="M264.739 89.5017C269.502 89.5017 273.363 86.0284 273.363 81.744C273.363 77.4596 269.502 73.9863 264.739 73.9863C259.976 73.9863 256.114 77.4596 256.114 81.744C256.114 86.0284 259.976 89.5017 264.739 89.5017Z" fill="#FFB8B8"/>
<path d="M264.285 82.3915L263.205 80.6229C261.16 88.1187 264.772 94.3224 264.772 94.3224L250.75 88.4472L250.884 86.3626L249.496 87.7789L247.503 86.7907L247.239 85.4386L245.734 85.7739L251.228 76.8077C256.559 68.2755 264.31 71.533 264.31 71.533C276.64 71.0058 275.135 81.9484 275.135 81.9484L264.285 82.3915Z" fill="#37454D"/>
<path d="M166.108 140.203C168.096 139.056 165.678 132.472 160.707 125.496C155.735 118.521 150.093 113.795 148.104 114.942C146.116 116.089 148.534 122.673 153.506 129.649C158.477 136.624 164.119 141.35 166.108 140.203Z" fill="#37454D"/>
</g>
<defs>
<clipPath id="clip0_0_3917">
<rect width="345" height="241" fill="white"/>
</clipPath>
</defs>
</svg>
